<mxfile host="app.diagrams.net" modified="2024-04-09T02:03:35.436Z" agent="Mozilla/5.0 (Macintosh; Intel Mac OS X 10_15_7) AppleWebKit/537.36 (KHTML, like Gecko) Chrome/122.0.0.0 Safari/537.36" version="22.1.17" etag="LvG7xv-5RMsrCMShVZX5" type="github">
  <diagram name="第 1 页" id="uP9j-JQ2NT2cQIP2gElG">
    <mxGraphModel>
      <root>
        <mxCell id="0" />
        <mxCell id="1" parent="0" />
      </root>
    </mxGraphModel>
  </diagram>
</mxfile>
